<svg width="24" height="24" viewBox="0 0 24 24" fill="none" xmlns="http://www.w3.org/2000/svg">
<path fill-rule="evenodd" clip-rule="evenodd" d="M6.74263 0C3.01878 0 0 3.01878 0 6.74263V17.2574C0 20.9812 3.01878 24 6.74263 24H17.2574C20.9812 24 24 20.9812 24 17.2574V6.74263C24 3.01878 20.9812 0 17.2574 0H6.74263ZM6.64874 2.21618C4.20089 2.21618 2.21652 4.20056 2.21652 6.64841V17.3517C2.21652 19.7996 4.20089 21.784 6.64874 21.784H17.3049C19.7528 21.784 21.7371 19.7996 21.7371 17.3517V6.6484C21.7371 4.20056 19.7528 2.21618 17.3049 2.21618H6.64874Z" fill="#959698"/>
<path fill-rule="evenodd" clip-rule="evenodd" d="M11.9999 18.2003C15.3983 18.2003 18.1532 15.4454 18.1532 12.0471C18.1532 8.64876 15.3983 5.89386 11.9999 5.89386C8.60158 5.89386 5.84668 8.64876 5.84668 12.0471C5.84668 15.4454 8.60158 18.2003 11.9999 18.2003ZM11.9995 16.0314C14.226 16.0314 16.0309 14.2265 16.0309 12C16.0309 9.7735 14.226 7.96857 11.9995 7.96857C9.77302 7.96857 7.96808 9.7735 7.96808 12C7.96808 14.2265 9.77302 16.0314 11.9995 16.0314Z" fill="#959698"/>
<circle cx="18.4597" cy="5.58753" r="1.43811" fill="#959698"/>
</svg>
