<svg width="65" height="70" viewBox="0 0 65 70" fill="none" xmlns="http://www.w3.org/2000/svg">
<path fill-rule="evenodd" clip-rule="evenodd" d="M10.0228 36.8474C9.89832 36.5979 9.38737 36.128 8.6618 35.4606C6.3093 33.2969 1.70062 29.0581 0.691392 23.5315C-0.62911 16.3003 -0.189073 12.2438 3.15626 7.04091C6.50159 1.83801 13.3682 -0.366638 15.1288 0.51521C16.0765 0.989914 15.1876 1.97569 14.2471 3.01861C13.4405 3.9131 12.596 4.84962 12.8399 5.54176C13.095 6.26566 13.9658 6.22877 14.7487 6.1956C15.5872 6.16008 16.3248 6.12884 16.0972 7.04091C15.9741 7.5338 15.4455 8.14377 14.7687 8.92471C13.0236 10.9382 10.2935 14.0883 10.9912 19.2986C11.9595 26.5298 15.1287 28.8226 16.0091 29.2635C16.2732 29.3957 16.7115 29.2423 17.5308 28.9556C19.4428 28.2865 23.4298 26.8913 32.1191 26.7061C41.1203 26.5143 44.9829 28.0243 46.9969 28.8117C47.7601 29.1101 48.2579 29.3047 48.6692 29.2635C50.1659 29.1135 52.6308 25.5597 53.6872 20.5332C54.7436 15.5066 51.9264 11.6265 49.7256 8.89279C48.583 7.47333 49.2677 7.33774 50.2642 7.14041C51.1869 6.9577 52.3768 6.72207 52.6308 5.36537C52.9022 3.91608 51.5248 2.93201 50.4306 2.15032C49.3944 1.40998 48.6122 0.851188 49.7256 0.250657C52.0146 -0.983938 62.0504 2.10253 64.6033 14.8893C67.1563 27.6761 56.5921 36.8474 55.5358 36.8474C55.0896 36.8474 55.1618 38.6099 55.2745 41.3638V41.3639C55.4287 45.1291 55.6588 50.7474 54.7436 56.248C53.1591 65.7719 45.2359 68.3294 42.2429 69.0348C39.2498 69.7403 31.5909 70.7985 23.58 69.0348C15.569 67.2711 11.4314 62.0682 10.5511 56.248C10.0489 52.9282 10.1196 47.4279 10.175 43.1182V43.1182C10.2167 39.8724 10.2498 37.302 10.0228 36.8474ZM27.6294 51.8388C27.6294 55.9299 24.831 59.2463 21.379 59.2463C17.9271 59.2463 15.1287 55.9299 15.1287 51.8388C15.1287 47.7477 17.9271 44.4313 21.379 44.4313C24.831 44.4313 27.6294 47.7477 27.6294 51.8388ZM43.7394 59.2463C47.1914 59.2463 49.9897 55.9299 49.9897 51.8388C49.9897 47.7477 47.1914 44.4313 43.7394 44.4313C40.2874 44.4313 37.4891 47.7477 37.4891 51.8388C37.4891 55.9299 40.2874 59.2463 43.7394 59.2463Z" fill="#E8E9F0"/>
</svg>
