<svg width="85" height="86" viewBox="0 0 85 86" fill="none" xmlns="http://www.w3.org/2000/svg">
<path fill-rule="evenodd" clip-rule="evenodd" d="M19.2326 44.5926C19.1054 44.3382 18.5834 43.8589 17.8421 43.1784C15.4389 40.9718 10.7307 36.6489 9.69972 31.0127C8.35072 23.6383 8.80025 19.5013 12.2178 14.1953C15.6353 8.88927 22.6501 6.64093 24.4487 7.54025C25.4169 8.02437 24.5088 9.02969 23.548 10.0933C22.724 11.0055 21.8613 11.9606 22.1104 12.6664C22.371 13.4047 23.2606 13.3671 24.0604 13.3332C24.917 13.297 25.6705 13.2652 25.438 14.1953C25.3123 14.698 24.7722 15.32 24.0808 16.1164C22.2981 18.1699 19.509 21.3824 20.2218 26.696C21.211 34.0705 24.4486 36.4087 25.348 36.8584C25.6178 36.9933 26.0656 36.8368 26.9026 36.5444C28.8559 35.8621 32.9288 34.4392 41.8057 34.2503C51.0012 34.0547 54.9471 35.5947 57.0045 36.3976C57.7843 36.7019 58.2928 36.9004 58.713 36.8584C60.242 36.7055 62.7601 33.0812 63.8393 27.955C64.9185 22.8288 62.0404 18.8718 59.7922 16.0839C58.6248 14.6363 59.3244 14.498 60.3424 14.2968C61.285 14.1104 62.5006 13.8701 62.7601 12.4866C63.0373 11.0085 61.6301 10.005 60.5124 9.20778C59.4538 8.45276 58.6548 7.88289 59.7922 7.27046C62.1306 6.01139 72.3829 9.15904 74.9909 22.1993C77.599 35.2396 66.8068 44.5926 65.7278 44.5926C65.2719 44.5926 65.3456 46.3901 65.4608 49.1986C65.6183 53.0384 65.8534 58.7681 64.9185 64.3778C63.2998 74.0905 55.2056 76.6986 52.1479 77.4181C49.0903 78.1375 41.2661 79.2167 33.0823 77.4181C24.8984 75.6194 20.6716 70.3133 19.7722 64.3778C19.2592 60.9922 19.3314 55.3828 19.388 50.9878C19.4306 47.6776 19.4644 45.0562 19.2326 44.5926ZM37.2191 59.8811C37.2191 64.0532 34.3603 67.4354 30.8338 67.4354C27.3074 67.4354 24.4486 64.0532 24.4486 59.8811C24.4486 55.7089 27.3074 52.3267 30.8338 52.3267C34.3603 52.3267 37.2191 55.7089 37.2191 59.8811ZM53.6767 67.4354C57.2032 67.4354 60.0619 64.0532 60.0619 59.8811C60.0619 55.7089 57.2032 52.3267 53.6767 52.3267C50.1502 52.3267 47.2915 55.7089 47.2915 59.8811C47.2915 64.0532 50.1502 67.4354 53.6767 67.4354Z" fill="#E8E9F0"/>
</svg>
