<svg width="33" height="36" viewBox="0 0 33 36" fill="none" xmlns="http://www.w3.org/2000/svg">
<g clip-path="url(#clip0)">
<path d="M32.708 27.5141C32.0606 28.5683 30.4851 29.3182 30.4851 29.3182L18.7346 34.7823V30.751L27.3799 26.7569C28.3596 26.304 28.5143 25.6581 27.7122 25.3166C26.9158 24.9751 25.4721 25.0716 24.4924 25.5319L18.7346 28.1674V23.9803C20.0638 23.4012 21.433 22.9706 23.0716 22.733C25.4148 22.3989 28.2794 22.7776 30.5309 23.8837C33.0632 24.9231 33.3497 26.4599 32.708 27.5141ZM19.8518 20.6468V10.3274C19.8518 9.11727 19.6799 8.00366 18.8033 7.68442C18.133 7.40231 17.7148 8.21153 17.7148 9.42165V35.25L12.3408 33.0376V2.25C14.6268 2.79938 17.9554 4.09859 19.7429 4.87812C24.2976 6.90489 25.8388 9.42908 25.8388 15.1085C25.8388 20.6394 23.2033 22.7404 19.8518 20.6468V20.6468ZM2.47521 30.3278C-0.125833 29.3776 -0.561249 27.3953 0.624688 26.2594C1.71896 25.2052 3.58667 24.4109 3.58667 24.4109L11.2924 20.8621V24.9083L5.74656 27.477C4.76688 27.9299 4.61792 28.5758 5.41427 28.9173C6.21063 29.2588 7.65438 29.1623 8.63406 28.702L11.2924 27.4473V31.0702C8.33615 31.7607 5.48302 31.6122 2.47521 30.3278V30.3278Z" fill="#E8E9F0"/>
</g>
<defs>
<clipPath id="clip0">
<rect width="33" height="36" fill="white"/>
</clipPath>
</defs>
</svg>
