<svg width="36" height="37" viewBox="0 0 36 37" fill="none" xmlns="http://www.w3.org/2000/svg">
<path d="M36 18.9981C36 28.9417 27.929 36.9981 17.971 36.9981C9.71129 36.9981 2.75806 31.4602 0.624194 23.9046L7.53387 26.757C7.99839 29.0868 10.0669 30.8505 12.5347 30.8505C15.3798 30.8505 17.7532 28.4989 17.6298 25.5158L23.7629 21.1465C27.5444 21.2408 30.7161 18.1779 30.7161 14.3602C30.7161 10.615 27.6677 7.57391 23.9153 7.57391C20.1629 7.57391 17.1145 10.6223 17.1145 14.3602V14.4473L12.8177 20.6675C11.6927 20.6021 10.5895 20.9142 9.66048 21.5457L0 17.5538C0.740323 8.28521 8.49919 0.998108 17.971 0.998108C27.929 0.998108 36 9.05456 36 18.9981ZM11.3008 28.3102L9.0871 27.3957C9.49389 28.2404 10.1963 28.9066 11.0613 29.2683C13.0137 30.0812 15.2565 29.1521 16.0694 27.207C16.4613 26.2634 16.4685 25.2255 16.0766 24.282C15.6847 23.3384 14.9516 22.5981 14.0081 22.2062C13.0718 21.8142 12.0702 21.8288 11.1847 22.1626L13.471 23.1062C14.9081 23.7013 15.5903 25.3489 14.9879 26.786C14.3855 28.2304 12.7379 28.9054 11.3008 28.3102V28.3102ZM23.9153 18.882C21.4185 18.882 19.3863 16.8497 19.3863 14.3602C19.3863 11.8707 21.4185 9.83843 23.9153 9.83843C26.4121 9.83843 28.4444 11.8707 28.4444 14.3602C28.4444 16.8497 26.4194 18.882 23.9153 18.882V18.882ZM23.9226 17.7497C25.8024 17.7497 27.3266 16.2255 27.3266 14.3529C27.3266 12.4731 25.8024 10.9562 23.9226 10.9562C22.0427 10.9562 20.5185 12.4804 20.5185 14.3529C20.5258 16.2255 22.05 17.7497 23.9226 17.7497Z" fill="#E8E9F0"/>
</svg>
