<svg width="31" height="24" viewBox="0 0 31 24" fill="none" xmlns="http://www.w3.org/2000/svg">
<path d="M14.8486 7.42372C8.32826 7.16953 3.61583 3.17747 2.07466 1.21322C-0.177828 4.91063 2.36116 8.06885 3.91221 9.18577C3.29574 9.2551 1.81779 8.791 1.15588 8.55028C1.36927 12.6174 4.56424 14.1927 6.13505 14.4719C5.28148 14.7261 3.98136 14.7126 3.438 14.6741C4.52868 17.9556 7.70587 18.776 9.15812 18.776C6.43143 21.2255 1.91659 21.5298 0 21.3757C5.95723 24.842 15.145 25.5353 21.695 19.3537C25.9707 14.6605 26.9513 11.6681 27.2076 5.95053C28.8911 4.77198 29.8849 3.41819 30.1714 2.88861C29.4364 3.30457 27.6127 3.63965 26.7927 3.75519C28.3102 2.96949 29.1637 1.25173 29.4008 0.491063C28.5236 1.115 26.4272 1.71391 25.4886 1.93537C23.9755 0.529397 22.9313 0.159195 20.8355 0C16.4194 0.259975 14.2262 3.49522 14.8486 7.42372Z" fill="#959698"/>
</svg>
