<svg width="36" height="36" viewBox="0 0 36 36" fill="none" xmlns="http://www.w3.org/2000/svg">
<path d="M26.0087 22.3734C29.1236 26.1914 30.5579 29.3203 29.8337 30.7195C29.2782 31.7813 25.847 33.8555 23.3228 34.65C21.2415 35.3039 18.5134 35.5852 16.2634 35.3672C13.5775 35.107 10.8564 34.1438 8.52199 32.625C6.56028 31.3453 6.11731 30.818 6.11731 29.7703C6.11731 27.668 8.43059 23.9836 12.3892 19.7789C14.6392 17.3953 17.7681 14.5969 18.1126 14.6742C18.7736 14.8219 24.04 19.9547 26.0087 22.3734V22.3734ZM13.2611 10.1109C11.1728 8.21953 9.1759 6.32109 7.18606 5.65312C6.11731 5.29453 6.03996 5.31562 5.16809 6.22265C3.11496 8.36015 1.40637 11.8266 0.928245 14.8289C0.548557 17.2336 0.499339 17.9086 0.632933 19.0828C1.02668 22.6336 1.84934 25.0875 3.48059 27.5836C4.14856 28.6102 4.33137 28.8 4.1345 28.2797C3.83918 27.5063 4.1134 25.643 4.80246 23.7797C5.80793 21.0375 8.59231 15.8414 13.2611 10.1109V10.1109ZM35.1704 14.5758C33.9822 8.95078 30.4243 5.41406 29.9251 5.41406C29.4118 5.41406 28.2236 5.87109 27.3939 6.3914C25.7556 7.41093 24.5111 8.59922 22.8728 10.1039C25.854 13.8516 30.0587 19.9055 31.5142 24.3281C31.9923 25.7836 32.1962 27.218 32.0345 28.0055C31.915 28.6031 31.915 28.6031 32.1329 28.3289C32.5618 27.7875 33.5322 26.1281 33.9189 25.2703C34.4392 24.1313 34.9736 22.4438 35.2267 21.143C35.529 19.5609 35.5009 16.1648 35.1704 14.5758V14.5758ZM9.93528 3.02343C13.2892 2.84765 17.6486 5.44921 17.972 5.5125C18.0212 5.51953 18.7032 5.21718 19.4907 4.83046C23.9837 2.64374 26.1001 3.0164 27.0423 3.05859C22.5493 0.295305 16.3056 -0.457039 10.5962 2.23593C8.9509 3.0164 8.90871 3.07265 9.93528 3.02343Z" fill="#E8E9F0"/>
</svg>
